G75*
%MOIN*%
%OFA0B0*%
%FSLAX25Y25*%
%IPPOS*%
%LPD*%
%AMOC8*
5,1,8,0,0,1.08239X$1,22.5*
%
%ADD10C,0.00400*%
%ADD11R,0.00787X0.00787*%
%ADD12R,0.00787X0.00787*%
%ADD13C,0.00600*%
%ADD14C,0.00500*%
%ADD15C,0.00200*%
%ADD16C,0.00100*%
%ADD17C,0.01000*%
%ADD18C,0.00800*%
%ADD19C,0.01500*%
D10*
X0035005Y0021379D02*
X0035005Y0022146D01*
X0038074Y0025215D01*
X0038074Y0025982D01*
X0035005Y0025982D01*
X0043077Y0040849D02*
X0043077Y0045453D01*
X0045379Y0045453D01*
X0046147Y0044685D01*
X0046147Y0043151D01*
X0045379Y0042383D01*
X0043077Y0042383D01*
X0044612Y0042383D02*
X0046147Y0040849D01*
X0047681Y0043151D02*
X0050750Y0043151D01*
X0049983Y0040849D02*
X0049983Y0045453D01*
X0047681Y0043151D01*
X0017984Y0042896D02*
X0017217Y0042129D01*
X0015682Y0042129D01*
X0014915Y0042896D01*
X0014915Y0043663D01*
X0015682Y0044431D01*
X0017217Y0044431D01*
X0017984Y0043663D01*
X0017984Y0042896D01*
X0017217Y0044431D02*
X0017984Y0045198D01*
X0017984Y0045965D01*
X0017217Y0046733D01*
X0015682Y0046733D01*
X0014915Y0045965D01*
X0014915Y0045198D01*
X0015682Y0044431D01*
X0008687Y0069649D02*
X0007152Y0069649D01*
X0006385Y0070416D01*
X0007152Y0071951D02*
X0009454Y0071951D01*
X0009454Y0073485D02*
X0009454Y0070416D01*
X0008687Y0069649D01*
X0007152Y0071951D02*
X0006385Y0072718D01*
X0006385Y0073485D01*
X0007152Y0074253D01*
X0008687Y0074253D01*
X0009454Y0073485D01*
X0011515Y0097329D02*
X0014584Y0097329D01*
X0013050Y0097329D02*
X0013050Y0101933D01*
X0011515Y0100398D01*
X0016119Y0101165D02*
X0016119Y0098096D01*
X0019188Y0101165D01*
X0019188Y0098096D01*
X0018421Y0097329D01*
X0016886Y0097329D01*
X0016119Y0098096D01*
X0016119Y0101165D02*
X0016886Y0101933D01*
X0018421Y0101933D01*
X0019188Y0101165D01*
X0033477Y0096053D02*
X0033477Y0091449D01*
X0033477Y0092983D02*
X0035779Y0092983D01*
X0036547Y0093751D01*
X0036547Y0095285D01*
X0035779Y0096053D01*
X0033477Y0096053D01*
X0035012Y0092983D02*
X0036547Y0091449D01*
X0038081Y0091449D02*
X0041150Y0094518D01*
X0041150Y0095285D01*
X0040383Y0096053D01*
X0038848Y0096053D01*
X0038081Y0095285D01*
X0038081Y0091449D02*
X0041150Y0091449D01*
X0040138Y0118317D02*
X0037069Y0118317D01*
X0038604Y0118317D02*
X0038604Y0122921D01*
X0037069Y0121386D01*
X0035535Y0118317D02*
X0032465Y0118317D01*
X0034000Y0118317D02*
X0034000Y0122921D01*
X0032465Y0121386D01*
X0040265Y0136549D02*
X0040265Y0141153D01*
X0038731Y0141153D02*
X0041800Y0141153D01*
X0044102Y0139618D02*
X0045637Y0139618D01*
X0046404Y0138851D01*
X0046404Y0138083D01*
X0043335Y0138083D01*
X0043335Y0137316D02*
X0043335Y0138851D01*
X0044102Y0139618D01*
X0043335Y0137316D02*
X0044102Y0136549D01*
X0045637Y0136549D01*
X0047939Y0137316D02*
X0047939Y0138851D01*
X0048706Y0139618D01*
X0051008Y0139618D01*
X0052543Y0138851D02*
X0053310Y0139618D01*
X0054845Y0139618D01*
X0055612Y0138851D01*
X0055612Y0136549D01*
X0057147Y0136549D02*
X0057147Y0139618D01*
X0059448Y0139618D01*
X0060216Y0138851D01*
X0060216Y0136549D01*
X0061750Y0137316D02*
X0062518Y0136549D01*
X0064052Y0136549D01*
X0064820Y0137316D01*
X0064820Y0138851D01*
X0064052Y0139618D01*
X0062518Y0139618D01*
X0061750Y0138851D01*
X0061750Y0137316D01*
X0066354Y0136549D02*
X0068656Y0136549D01*
X0069424Y0137316D01*
X0069424Y0138851D01*
X0068656Y0139618D01*
X0066354Y0139618D01*
X0066354Y0141153D02*
X0066354Y0136549D01*
X0070958Y0136549D02*
X0072493Y0136549D01*
X0071726Y0136549D02*
X0071726Y0141153D01*
X0070958Y0141153D01*
X0074028Y0138851D02*
X0074028Y0137316D01*
X0074795Y0136549D01*
X0076330Y0136549D01*
X0077097Y0137316D01*
X0077097Y0138851D01*
X0076330Y0139618D01*
X0074795Y0139618D01*
X0074028Y0138851D01*
X0078631Y0138851D02*
X0078631Y0137316D01*
X0079399Y0136549D01*
X0081701Y0136549D01*
X0081701Y0135781D02*
X0081701Y0139618D01*
X0079399Y0139618D01*
X0078631Y0138851D01*
X0080166Y0135014D02*
X0080933Y0135014D01*
X0081701Y0135781D01*
X0083235Y0137316D02*
X0084003Y0136549D01*
X0086305Y0136549D01*
X0086305Y0135781D02*
X0085537Y0135014D01*
X0084770Y0135014D01*
X0086305Y0135781D02*
X0086305Y0139618D01*
X0083235Y0139618D02*
X0083235Y0137316D01*
X0092300Y0121621D02*
X0092300Y0117017D01*
X0090765Y0117017D02*
X0093835Y0117017D01*
X0090765Y0120086D02*
X0092300Y0121621D01*
X0077016Y0108153D02*
X0077016Y0103549D01*
X0078550Y0103549D02*
X0075481Y0103549D01*
X0073947Y0103549D02*
X0072412Y0105083D01*
X0073179Y0105083D02*
X0070877Y0105083D01*
X0070877Y0103549D02*
X0070877Y0108153D01*
X0073179Y0108153D01*
X0073947Y0107385D01*
X0073947Y0105851D01*
X0073179Y0105083D01*
X0075481Y0106618D02*
X0077016Y0108153D01*
X0089485Y0101653D02*
X0089485Y0097049D01*
X0089485Y0098583D02*
X0091787Y0098583D01*
X0092554Y0099351D01*
X0092554Y0100885D01*
X0091787Y0101653D01*
X0089485Y0101653D01*
X0091020Y0098583D02*
X0092554Y0097049D01*
X0094089Y0097816D02*
X0094856Y0097049D01*
X0096391Y0097049D01*
X0097158Y0097816D01*
X0097158Y0098583D01*
X0096391Y0099351D01*
X0095624Y0099351D01*
X0096391Y0099351D02*
X0097158Y0100118D01*
X0097158Y0100885D01*
X0096391Y0101653D01*
X0094856Y0101653D01*
X0094089Y0100885D01*
X0110253Y0100705D02*
X0111021Y0101472D01*
X0112555Y0101472D01*
X0113323Y0100705D01*
X0113323Y0099938D01*
X0110253Y0096869D01*
X0113323Y0096869D01*
X0115949Y0073953D02*
X0117483Y0073953D01*
X0118250Y0073185D01*
X0118250Y0072418D01*
X0117483Y0071651D01*
X0118250Y0070883D01*
X0118250Y0070116D01*
X0117483Y0069349D01*
X0115949Y0069349D01*
X0115181Y0070116D01*
X0116716Y0071651D02*
X0117483Y0071651D01*
X0115181Y0073185D02*
X0115949Y0073953D01*
X0111155Y0046672D02*
X0108853Y0044370D01*
X0111923Y0044370D01*
X0111155Y0042069D02*
X0111155Y0046672D01*
X0093174Y0026282D02*
X0090105Y0026282D01*
X0090105Y0023980D01*
X0091640Y0024748D01*
X0092407Y0024748D01*
X0093174Y0023980D01*
X0093174Y0022446D01*
X0092407Y0021679D01*
X0090872Y0021679D01*
X0090105Y0022446D01*
X0086070Y0007553D02*
X0084535Y0007553D01*
X0083768Y0006785D01*
X0086070Y0007553D02*
X0086837Y0006785D01*
X0086837Y0006018D01*
X0083768Y0002949D01*
X0086837Y0002949D01*
X0077630Y0004483D02*
X0074560Y0004483D01*
X0074560Y0003716D02*
X0074560Y0005251D01*
X0075328Y0006018D01*
X0076862Y0006018D01*
X0077630Y0005251D01*
X0077630Y0004483D01*
X0076862Y0002949D02*
X0075328Y0002949D01*
X0074560Y0003716D01*
X0073026Y0002949D02*
X0073026Y0005251D01*
X0072258Y0006018D01*
X0071491Y0005251D01*
X0071491Y0002949D01*
X0069956Y0002949D02*
X0069956Y0006018D01*
X0070724Y0006018D01*
X0071491Y0005251D01*
X0068422Y0002949D02*
X0066887Y0002949D01*
X0067654Y0002949D02*
X0067654Y0006018D01*
X0066887Y0006018D01*
X0067654Y0007553D02*
X0067654Y0008320D01*
X0065352Y0007553D02*
X0062283Y0007553D01*
X0063818Y0007553D02*
X0063818Y0002949D01*
X0056145Y0002949D02*
X0053843Y0002949D01*
X0053075Y0003716D01*
X0053075Y0006018D01*
X0051541Y0005251D02*
X0051541Y0002949D01*
X0051541Y0005251D02*
X0050773Y0006018D01*
X0048471Y0006018D01*
X0048471Y0002949D01*
X0046937Y0002949D02*
X0045402Y0002949D01*
X0046169Y0002949D02*
X0046169Y0006018D01*
X0045402Y0006018D01*
X0046169Y0007553D02*
X0046169Y0008320D01*
X0043867Y0007553D02*
X0040798Y0007553D01*
X0042333Y0007553D02*
X0042333Y0002949D01*
X0054610Y0001414D02*
X0055377Y0001414D01*
X0056145Y0002181D01*
X0056145Y0006018D01*
X0067481Y0087141D02*
X0067481Y0089443D01*
X0068249Y0090210D01*
X0069783Y0090210D01*
X0070551Y0089443D01*
X0070551Y0087141D01*
X0072085Y0087141D02*
X0067481Y0087141D01*
X0070551Y0088675D02*
X0072085Y0090210D01*
X0071318Y0091745D02*
X0072085Y0092512D01*
X0072085Y0094047D01*
X0071318Y0094814D01*
X0070551Y0094814D01*
X0069783Y0094047D01*
X0069783Y0091745D01*
X0071318Y0091745D01*
X0069783Y0091745D02*
X0068249Y0093279D01*
X0067481Y0094814D01*
X0052543Y0136549D02*
X0052543Y0141153D01*
X0051008Y0136549D02*
X0048706Y0136549D01*
X0047939Y0137316D01*
D11*
X0063585Y0115855D03*
X0107591Y0071749D03*
X0063585Y0027642D03*
X0019379Y0071749D03*
D12*
G36*
X0025243Y0049160D02*
X0024850Y0049839D01*
X0025529Y0050232D01*
X0025922Y0049553D01*
X0025243Y0049160D01*
G37*
G36*
X0041675Y0033014D02*
X0040996Y0033407D01*
X0041389Y0034086D01*
X0042068Y0033693D01*
X0041675Y0033014D01*
G37*
G36*
X0086174Y0033407D02*
X0085495Y0033014D01*
X0085102Y0033693D01*
X0085781Y0034086D01*
X0086174Y0033407D01*
G37*
G36*
X0102318Y0049839D02*
X0101925Y0049160D01*
X0101246Y0049553D01*
X0101639Y0050232D01*
X0102318Y0049839D01*
G37*
G36*
X0101925Y0094338D02*
X0102318Y0093659D01*
X0101639Y0093266D01*
X0101246Y0093945D01*
X0101925Y0094338D01*
G37*
G36*
X0085495Y0110482D02*
X0086174Y0110089D01*
X0085781Y0109410D01*
X0085102Y0109803D01*
X0085495Y0110482D01*
G37*
G36*
X0040996Y0110089D02*
X0041675Y0110482D01*
X0042068Y0109803D01*
X0041389Y0109410D01*
X0040996Y0110089D01*
G37*
G36*
X0024850Y0093659D02*
X0025243Y0094338D01*
X0025922Y0093945D01*
X0025529Y0093266D01*
X0024850Y0093659D01*
G37*
D13*
X0074486Y0079247D02*
X0074486Y0059150D01*
X0093084Y0059150D02*
X0093084Y0079247D01*
D14*
X0072870Y0058119D02*
X0072872Y0058166D01*
X0072878Y0058213D01*
X0072888Y0058260D01*
X0072901Y0058305D01*
X0072919Y0058349D01*
X0072940Y0058391D01*
X0072964Y0058432D01*
X0072992Y0058470D01*
X0073023Y0058506D01*
X0073057Y0058539D01*
X0073093Y0058569D01*
X0073132Y0058596D01*
X0073173Y0058620D01*
X0073216Y0058640D01*
X0073260Y0058656D01*
X0073306Y0058669D01*
X0073352Y0058678D01*
X0073400Y0058683D01*
X0073447Y0058684D01*
X0073494Y0058681D01*
X0073541Y0058674D01*
X0073587Y0058663D01*
X0073632Y0058649D01*
X0073676Y0058630D01*
X0073717Y0058608D01*
X0073757Y0058583D01*
X0073795Y0058554D01*
X0073830Y0058523D01*
X0073863Y0058488D01*
X0073892Y0058451D01*
X0073918Y0058412D01*
X0073941Y0058370D01*
X0073960Y0058327D01*
X0073976Y0058282D01*
X0073988Y0058236D01*
X0073996Y0058190D01*
X0074000Y0058143D01*
X0074000Y0058095D01*
X0073996Y0058048D01*
X0073988Y0058002D01*
X0073976Y0057956D01*
X0073960Y0057911D01*
X0073941Y0057868D01*
X0073918Y0057826D01*
X0073892Y0057787D01*
X0073863Y0057750D01*
X0073830Y0057715D01*
X0073795Y0057684D01*
X0073757Y0057655D01*
X0073718Y0057630D01*
X0073676Y0057608D01*
X0073632Y0057589D01*
X0073587Y0057575D01*
X0073541Y0057564D01*
X0073494Y0057557D01*
X0073447Y0057554D01*
X0073400Y0057555D01*
X0073352Y0057560D01*
X0073306Y0057569D01*
X0073260Y0057582D01*
X0073216Y0057598D01*
X0073173Y0057618D01*
X0073132Y0057642D01*
X0073093Y0057669D01*
X0073057Y0057699D01*
X0073023Y0057732D01*
X0072992Y0057768D01*
X0072964Y0057806D01*
X0072940Y0057847D01*
X0072919Y0057889D01*
X0072901Y0057933D01*
X0072888Y0057978D01*
X0072878Y0058025D01*
X0072872Y0058072D01*
X0072870Y0058119D01*
D15*
X0075885Y0071449D02*
X0075885Y0072983D01*
X0076652Y0073751D01*
X0077420Y0072983D01*
X0077420Y0071449D01*
X0077420Y0072600D02*
X0075885Y0072600D01*
X0078187Y0073751D02*
X0079722Y0073751D01*
X0078954Y0073751D02*
X0078954Y0071449D01*
X0080873Y0071832D02*
X0080873Y0073367D01*
X0081256Y0072983D02*
X0080489Y0072983D01*
X0080873Y0071832D02*
X0081256Y0071449D01*
X0082024Y0071449D02*
X0082791Y0071449D01*
X0082407Y0071449D02*
X0082407Y0072983D01*
X0082024Y0072983D01*
X0082407Y0073751D02*
X0082407Y0074134D01*
X0083558Y0072983D02*
X0084709Y0072983D01*
X0085093Y0072600D01*
X0085093Y0071449D01*
X0085860Y0071832D02*
X0086244Y0071449D01*
X0087395Y0071449D01*
X0087395Y0071065D02*
X0087011Y0070681D01*
X0086628Y0070681D01*
X0087395Y0071065D02*
X0087395Y0072983D01*
X0088162Y0072983D02*
X0088162Y0073367D01*
X0088546Y0073751D01*
X0089313Y0073751D01*
X0089697Y0073367D01*
X0089697Y0072983D01*
X0089313Y0072600D01*
X0088546Y0072600D01*
X0088162Y0072983D01*
X0088546Y0072600D02*
X0088162Y0072216D01*
X0088162Y0071832D01*
X0088546Y0071449D01*
X0089313Y0071449D01*
X0089697Y0071832D01*
X0089697Y0072216D01*
X0089313Y0072600D01*
X0090464Y0072600D02*
X0090464Y0073751D01*
X0091999Y0073751D01*
X0091615Y0072983D02*
X0091231Y0072983D01*
X0090464Y0072600D01*
X0090464Y0071832D02*
X0090848Y0071449D01*
X0091615Y0071449D01*
X0091999Y0071832D01*
X0091999Y0072600D01*
X0091615Y0072983D01*
X0085860Y0072983D02*
X0085860Y0071832D01*
X0083558Y0071449D02*
X0083558Y0072983D01*
D16*
X0080809Y0067800D02*
X0080809Y0066299D01*
X0081309Y0066299D02*
X0080308Y0066299D01*
X0079836Y0066549D02*
X0079836Y0067800D01*
X0080308Y0067300D02*
X0080809Y0067800D01*
X0079836Y0066549D02*
X0079586Y0066299D01*
X0079085Y0066299D01*
X0078835Y0066549D01*
X0078835Y0067800D01*
X0061913Y0050200D02*
X0061412Y0050200D01*
X0061162Y0049950D01*
X0060689Y0049950D02*
X0060439Y0050200D01*
X0059939Y0050200D01*
X0059689Y0049950D01*
X0059689Y0049700D01*
X0059939Y0049449D01*
X0060439Y0049449D01*
X0060689Y0049199D01*
X0060689Y0048949D01*
X0060439Y0048699D01*
X0059939Y0048699D01*
X0059689Y0048949D01*
X0061162Y0048699D02*
X0062163Y0049700D01*
X0062163Y0049950D01*
X0061913Y0050200D01*
X0062163Y0048699D02*
X0061162Y0048699D01*
X0040563Y0047699D02*
X0039562Y0047699D01*
X0040062Y0047699D02*
X0040062Y0049200D01*
X0039562Y0048700D01*
X0039089Y0048950D02*
X0039089Y0049200D01*
X0039089Y0048950D02*
X0038589Y0048449D01*
X0038589Y0047699D01*
X0038589Y0048449D02*
X0038089Y0048950D01*
X0038089Y0049200D01*
X0099934Y0072402D02*
X0100184Y0072152D01*
X0101185Y0072152D01*
X0101435Y0072402D01*
X0101435Y0072903D01*
X0101185Y0073153D01*
X0101435Y0073625D02*
X0101435Y0074626D01*
X0101435Y0074126D02*
X0099934Y0074126D01*
X0100434Y0073625D01*
X0100184Y0073153D02*
X0099934Y0072903D01*
X0099934Y0072402D01*
D17*
X0062585Y0071349D02*
X0048385Y0071349D01*
X0048385Y0085949D01*
X0062585Y0085949D01*
X0062585Y0071349D01*
D18*
X0065148Y0067249D02*
X0053022Y0067249D01*
X0049085Y0062131D02*
X0049085Y0052367D01*
X0053022Y0047249D02*
X0065148Y0047249D01*
X0069085Y0052249D02*
X0069085Y0062131D01*
X0054085Y0057249D02*
X0054087Y0057390D01*
X0054093Y0057531D01*
X0054103Y0057671D01*
X0054117Y0057811D01*
X0054135Y0057951D01*
X0054156Y0058090D01*
X0054182Y0058229D01*
X0054211Y0058367D01*
X0054245Y0058503D01*
X0054282Y0058639D01*
X0054323Y0058774D01*
X0054368Y0058908D01*
X0054417Y0059040D01*
X0054469Y0059171D01*
X0054525Y0059300D01*
X0054585Y0059427D01*
X0054648Y0059553D01*
X0054714Y0059677D01*
X0054785Y0059800D01*
X0054858Y0059920D01*
X0054935Y0060038D01*
X0055015Y0060154D01*
X0055099Y0060267D01*
X0055185Y0060378D01*
X0055275Y0060487D01*
X0055368Y0060593D01*
X0055463Y0060696D01*
X0055562Y0060797D01*
X0055663Y0060895D01*
X0055767Y0060990D01*
X0055874Y0061082D01*
X0055983Y0061171D01*
X0056095Y0061256D01*
X0056209Y0061339D01*
X0056325Y0061419D01*
X0056444Y0061495D01*
X0056565Y0061567D01*
X0056687Y0061637D01*
X0056812Y0061702D01*
X0056938Y0061765D01*
X0057066Y0061823D01*
X0057196Y0061878D01*
X0057327Y0061930D01*
X0057460Y0061977D01*
X0057594Y0062021D01*
X0057729Y0062062D01*
X0057865Y0062098D01*
X0058002Y0062130D01*
X0058140Y0062159D01*
X0058278Y0062184D01*
X0058418Y0062204D01*
X0058558Y0062221D01*
X0058698Y0062234D01*
X0058839Y0062243D01*
X0058979Y0062248D01*
X0059120Y0062249D01*
X0059261Y0062246D01*
X0059402Y0062239D01*
X0059542Y0062228D01*
X0059682Y0062213D01*
X0059822Y0062194D01*
X0059961Y0062172D01*
X0060099Y0062145D01*
X0060237Y0062115D01*
X0060373Y0062080D01*
X0060509Y0062042D01*
X0060643Y0062000D01*
X0060777Y0061954D01*
X0060909Y0061905D01*
X0061039Y0061851D01*
X0061168Y0061794D01*
X0061295Y0061734D01*
X0061421Y0061670D01*
X0061544Y0061602D01*
X0061666Y0061531D01*
X0061786Y0061457D01*
X0061903Y0061379D01*
X0062018Y0061298D01*
X0062131Y0061214D01*
X0062242Y0061127D01*
X0062350Y0061036D01*
X0062455Y0060943D01*
X0062558Y0060846D01*
X0062658Y0060747D01*
X0062755Y0060645D01*
X0062849Y0060540D01*
X0062940Y0060433D01*
X0063028Y0060323D01*
X0063113Y0060211D01*
X0063195Y0060096D01*
X0063274Y0059979D01*
X0063349Y0059860D01*
X0063421Y0059739D01*
X0063489Y0059616D01*
X0063554Y0059491D01*
X0063616Y0059364D01*
X0063673Y0059235D01*
X0063728Y0059105D01*
X0063778Y0058974D01*
X0063825Y0058841D01*
X0063868Y0058707D01*
X0063907Y0058571D01*
X0063942Y0058435D01*
X0063974Y0058298D01*
X0064001Y0058160D01*
X0064025Y0058021D01*
X0064045Y0057881D01*
X0064061Y0057741D01*
X0064073Y0057601D01*
X0064081Y0057460D01*
X0064085Y0057319D01*
X0064085Y0057179D01*
X0064081Y0057038D01*
X0064073Y0056897D01*
X0064061Y0056757D01*
X0064045Y0056617D01*
X0064025Y0056477D01*
X0064001Y0056338D01*
X0063974Y0056200D01*
X0063942Y0056063D01*
X0063907Y0055927D01*
X0063868Y0055791D01*
X0063825Y0055657D01*
X0063778Y0055524D01*
X0063728Y0055393D01*
X0063673Y0055263D01*
X0063616Y0055134D01*
X0063554Y0055007D01*
X0063489Y0054882D01*
X0063421Y0054759D01*
X0063349Y0054638D01*
X0063274Y0054519D01*
X0063195Y0054402D01*
X0063113Y0054287D01*
X0063028Y0054175D01*
X0062940Y0054065D01*
X0062849Y0053958D01*
X0062755Y0053853D01*
X0062658Y0053751D01*
X0062558Y0053652D01*
X0062455Y0053555D01*
X0062350Y0053462D01*
X0062242Y0053371D01*
X0062131Y0053284D01*
X0062018Y0053200D01*
X0061903Y0053119D01*
X0061786Y0053041D01*
X0061666Y0052967D01*
X0061544Y0052896D01*
X0061421Y0052828D01*
X0061295Y0052764D01*
X0061168Y0052704D01*
X0061039Y0052647D01*
X0060909Y0052593D01*
X0060777Y0052544D01*
X0060643Y0052498D01*
X0060509Y0052456D01*
X0060373Y0052418D01*
X0060237Y0052383D01*
X0060099Y0052353D01*
X0059961Y0052326D01*
X0059822Y0052304D01*
X0059682Y0052285D01*
X0059542Y0052270D01*
X0059402Y0052259D01*
X0059261Y0052252D01*
X0059120Y0052249D01*
X0058979Y0052250D01*
X0058839Y0052255D01*
X0058698Y0052264D01*
X0058558Y0052277D01*
X0058418Y0052294D01*
X0058278Y0052314D01*
X0058140Y0052339D01*
X0058002Y0052368D01*
X0057865Y0052400D01*
X0057729Y0052436D01*
X0057594Y0052477D01*
X0057460Y0052521D01*
X0057327Y0052568D01*
X0057196Y0052620D01*
X0057066Y0052675D01*
X0056938Y0052733D01*
X0056812Y0052796D01*
X0056687Y0052861D01*
X0056565Y0052931D01*
X0056444Y0053003D01*
X0056325Y0053079D01*
X0056209Y0053159D01*
X0056095Y0053242D01*
X0055983Y0053327D01*
X0055874Y0053416D01*
X0055767Y0053508D01*
X0055663Y0053603D01*
X0055562Y0053701D01*
X0055463Y0053802D01*
X0055368Y0053905D01*
X0055275Y0054011D01*
X0055185Y0054120D01*
X0055099Y0054231D01*
X0055015Y0054344D01*
X0054935Y0054460D01*
X0054858Y0054578D01*
X0054785Y0054698D01*
X0054714Y0054821D01*
X0054648Y0054945D01*
X0054585Y0055071D01*
X0054525Y0055198D01*
X0054469Y0055327D01*
X0054417Y0055458D01*
X0054368Y0055590D01*
X0054323Y0055724D01*
X0054282Y0055859D01*
X0054245Y0055995D01*
X0054211Y0056131D01*
X0054182Y0056269D01*
X0054156Y0056408D01*
X0054135Y0056547D01*
X0054117Y0056687D01*
X0054103Y0056827D01*
X0054093Y0056967D01*
X0054087Y0057108D01*
X0054085Y0057249D01*
D19*
X0096775Y0071549D02*
X0096995Y0071549D01*
M02*
