G75*
%MOIN*%
%OFA0B0*%
%FSLAX25Y25*%
%IPPOS*%
%LPD*%
%AMOC8*
5,1,8,0,0,1.08239X$1,22.5*
%
%ADD10C,0.00400*%
%ADD11C,0.00800*%
%ADD12C,0.00100*%
D10*
X0050296Y0023549D02*
X0053366Y0023549D01*
X0050296Y0026618D01*
X0050296Y0027385D01*
X0051064Y0028153D01*
X0052598Y0028153D01*
X0053366Y0027385D01*
X0054900Y0027385D02*
X0054900Y0026618D01*
X0055667Y0025851D01*
X0054900Y0025083D01*
X0054900Y0024316D01*
X0055667Y0023549D01*
X0057202Y0023549D01*
X0057969Y0024316D01*
X0059504Y0024316D02*
X0060271Y0023549D01*
X0061806Y0023549D01*
X0062573Y0024316D01*
X0059504Y0027385D01*
X0059504Y0024316D01*
X0056435Y0025851D02*
X0055667Y0025851D01*
X0054900Y0027385D02*
X0055667Y0028153D01*
X0057202Y0028153D01*
X0057969Y0027385D01*
X0059504Y0027385D02*
X0060271Y0028153D01*
X0061806Y0028153D01*
X0062573Y0027385D01*
X0062573Y0024316D01*
X0064108Y0023549D02*
X0067177Y0023549D01*
X0064108Y0026618D01*
X0064108Y0027385D01*
X0064875Y0028153D01*
X0066410Y0028153D01*
X0067177Y0027385D01*
X0068712Y0027385D02*
X0068712Y0025851D01*
X0069479Y0025083D01*
X0071781Y0025083D01*
X0071781Y0023549D02*
X0071781Y0028153D01*
X0069479Y0028153D01*
X0068712Y0027385D01*
X0070247Y0025083D02*
X0068712Y0023549D01*
X0073316Y0024316D02*
X0074083Y0023549D01*
X0075618Y0023549D01*
X0076385Y0024316D01*
X0076385Y0027385D01*
X0075618Y0028153D01*
X0074083Y0028153D01*
X0073316Y0027385D01*
D11*
X0041535Y0040549D02*
X0021850Y0053935D01*
X0021850Y0059250D01*
X0021850Y0084447D02*
X0021850Y0090156D01*
X0033858Y0100786D01*
X0092913Y0100786D01*
X0104921Y0090156D01*
X0104921Y0084447D01*
X0104921Y0059250D02*
X0104921Y0053935D01*
X0085236Y0040549D01*
X0085235Y0040549D02*
X0084356Y0041067D01*
X0083464Y0041564D01*
X0082560Y0042039D01*
X0081646Y0042492D01*
X0080720Y0042923D01*
X0079785Y0043331D01*
X0078840Y0043717D01*
X0077885Y0044080D01*
X0076922Y0044419D01*
X0075952Y0044735D01*
X0074974Y0045027D01*
X0073989Y0045296D01*
X0072998Y0045541D01*
X0072001Y0045761D01*
X0070999Y0045958D01*
X0069993Y0046130D01*
X0068983Y0046278D01*
X0067970Y0046401D01*
X0066954Y0046500D01*
X0065936Y0046574D01*
X0064916Y0046623D01*
X0063895Y0046648D01*
X0062875Y0046648D01*
X0061854Y0046623D01*
X0060834Y0046574D01*
X0059816Y0046500D01*
X0058800Y0046401D01*
X0057787Y0046278D01*
X0056777Y0046130D01*
X0055771Y0045958D01*
X0054769Y0045761D01*
X0053772Y0045541D01*
X0052781Y0045296D01*
X0051796Y0045027D01*
X0050818Y0044735D01*
X0049848Y0044419D01*
X0048885Y0044080D01*
X0047930Y0043717D01*
X0046985Y0043331D01*
X0046050Y0042923D01*
X0045124Y0042492D01*
X0044210Y0042039D01*
X0043306Y0041564D01*
X0042414Y0041067D01*
X0041535Y0040549D01*
D12*
X0061415Y0095399D02*
X0062415Y0095399D01*
X0061915Y0095399D02*
X0061915Y0096900D01*
X0062415Y0096400D01*
X0062888Y0096900D02*
X0063889Y0096900D01*
X0063388Y0096900D02*
X0063388Y0095399D01*
X0064361Y0095399D02*
X0064361Y0096400D01*
X0064861Y0096900D01*
X0065362Y0096400D01*
X0065362Y0095399D01*
X0065834Y0095649D02*
X0066084Y0095399D01*
X0066835Y0095399D01*
X0066835Y0096900D01*
X0066084Y0096900D01*
X0065834Y0096650D01*
X0065834Y0096400D01*
X0066084Y0096149D01*
X0066835Y0096149D01*
X0066084Y0096149D02*
X0065834Y0095899D01*
X0065834Y0095649D01*
X0065362Y0096149D02*
X0064361Y0096149D01*
M02*
