G75*
%MOIN*%
%OFA0B0*%
%FSLAX25Y25*%
%IPPOS*%
%LPD*%
%AMOC8*
5,1,8,0,0,1.08239X$1,22.5*
%
%ADD10R,0.05524X0.05524*%
%ADD11R,0.05524X0.05524*%
%ADD12R,0.05918X0.07099*%
%ADD13R,0.03200X0.09500*%
%ADD14R,0.04800X0.08300*%
%ADD15R,0.10643X0.24422*%
%ADD16R,0.05600X0.02400*%
%ADD17R,0.07099X0.05918*%
%ADD18R,0.06800X0.03800*%
%ADD19R,0.04737X0.05131*%
%ADD20R,0.04762X0.04762*%
D10*
X0014851Y0071749D03*
X0023119Y0071749D03*
X0063585Y0112115D03*
X0063585Y0120383D03*
X0103851Y0071749D03*
X0112119Y0071749D03*
X0063585Y0031383D03*
X0063585Y0023115D03*
D11*
G36*
X0087540Y0035779D02*
X0082758Y0033017D01*
X0079996Y0037799D01*
X0084778Y0040561D01*
X0087540Y0035779D01*
G37*
G36*
X0091674Y0028619D02*
X0086892Y0025857D01*
X0084130Y0030639D01*
X0088912Y0033401D01*
X0091674Y0028619D01*
G37*
G36*
X0109475Y0048442D02*
X0106713Y0043660D01*
X0101931Y0046422D01*
X0104693Y0051204D01*
X0109475Y0048442D01*
G37*
G36*
X0102315Y0052576D02*
X0099553Y0047794D01*
X0094771Y0050556D01*
X0097533Y0055338D01*
X0102315Y0052576D01*
G37*
G36*
X0099553Y0095704D02*
X0102315Y0090922D01*
X0097533Y0088160D01*
X0094771Y0092942D01*
X0099553Y0095704D01*
G37*
G36*
X0106713Y0099838D02*
X0109475Y0095056D01*
X0104693Y0092294D01*
X0101931Y0097076D01*
X0106713Y0099838D01*
G37*
G36*
X0086892Y0117639D02*
X0091674Y0114877D01*
X0088912Y0110095D01*
X0084130Y0112857D01*
X0086892Y0117639D01*
G37*
G36*
X0082758Y0110479D02*
X0087540Y0107717D01*
X0084778Y0102935D01*
X0079996Y0105697D01*
X0082758Y0110479D01*
G37*
G36*
X0039630Y0107717D02*
X0044412Y0110479D01*
X0047174Y0105697D01*
X0042392Y0102935D01*
X0039630Y0107717D01*
G37*
G36*
X0035496Y0114877D02*
X0040278Y0117639D01*
X0043040Y0112857D01*
X0038258Y0110095D01*
X0035496Y0114877D01*
G37*
G36*
X0017693Y0095056D02*
X0020455Y0099838D01*
X0025237Y0097076D01*
X0022475Y0092294D01*
X0017693Y0095056D01*
G37*
G36*
X0024853Y0090922D02*
X0027615Y0095704D01*
X0032397Y0092942D01*
X0029635Y0088160D01*
X0024853Y0090922D01*
G37*
G36*
X0027615Y0047794D02*
X0024853Y0052576D01*
X0029635Y0055338D01*
X0032397Y0050556D01*
X0027615Y0047794D01*
G37*
G36*
X0020455Y0043660D02*
X0017693Y0048442D01*
X0022475Y0051204D01*
X0025237Y0046422D01*
X0020455Y0043660D01*
G37*
G36*
X0040278Y0025857D02*
X0035496Y0028619D01*
X0038258Y0033401D01*
X0043040Y0030639D01*
X0040278Y0025857D01*
G37*
G36*
X0044412Y0033017D02*
X0039630Y0035779D01*
X0042392Y0040561D01*
X0047174Y0037799D01*
X0044412Y0033017D01*
G37*
D12*
X0055345Y0040049D03*
X0062825Y0040049D03*
X0054225Y0093649D03*
X0046745Y0093649D03*
X0057945Y0103449D03*
X0065425Y0103449D03*
X0076945Y0099049D03*
X0084425Y0099049D03*
D13*
X0086285Y0082449D03*
X0081285Y0082449D03*
X0076285Y0082449D03*
X0091285Y0082449D03*
X0091285Y0055949D03*
X0086285Y0055949D03*
X0081285Y0055949D03*
X0076285Y0055949D03*
D14*
X0043485Y0082749D03*
X0033485Y0082749D03*
D15*
X0038485Y0061749D03*
D16*
X0049185Y0073649D03*
X0049185Y0078649D03*
X0049185Y0083649D03*
X0061785Y0083649D03*
X0061785Y0078649D03*
X0061785Y0073649D03*
D17*
X0069685Y0075009D03*
X0069685Y0082489D03*
D18*
X0070085Y0064749D03*
X0070085Y0049749D03*
X0048085Y0049749D03*
X0048085Y0064749D03*
D19*
X0096885Y0068202D03*
X0096885Y0074895D03*
D20*
X0029185Y0037449D03*
X0072085Y0053749D03*
X0096585Y0061149D03*
X0112085Y0055249D03*
X0107985Y0086149D03*
X0097085Y0106149D03*
X0014785Y0088149D03*
M02*
