G75*
%MOIN*%
%OFA0B0*%
%FSLAX25Y25*%
%IPPOS*%
%LPD*%
%AMOC8*
5,1,8,0,0,1.08239X$1,22.5*
%
%ADD10R,0.04724X0.04724*%
%ADD11R,0.04724X0.04724*%
%ADD12R,0.05118X0.06299*%
%ADD13R,0.02400X0.08700*%
%ADD14R,0.04000X0.07500*%
%ADD15R,0.09843X0.23622*%
%ADD16R,0.04800X0.01600*%
%ADD17R,0.06299X0.05118*%
%ADD18R,0.06000X0.03000*%
%ADD19R,0.03937X0.04331*%
D10*
X0014851Y0071749D03*
X0023119Y0071749D03*
X0063585Y0112115D03*
X0063585Y0120383D03*
X0103851Y0071749D03*
X0112119Y0071749D03*
X0063585Y0031383D03*
X0063585Y0023115D03*
D11*
G36*
X0040132Y0026403D02*
X0036042Y0028765D01*
X0038404Y0032855D01*
X0042494Y0030493D01*
X0040132Y0026403D01*
G37*
G36*
X0044266Y0033563D02*
X0040176Y0035925D01*
X0042538Y0040015D01*
X0046628Y0037653D01*
X0044266Y0033563D01*
G37*
G36*
X0027761Y0048340D02*
X0025399Y0052430D01*
X0029489Y0054792D01*
X0031851Y0050702D01*
X0027761Y0048340D01*
G37*
G36*
X0020601Y0044206D02*
X0018239Y0048296D01*
X0022329Y0050658D01*
X0024691Y0046568D01*
X0020601Y0044206D01*
G37*
G36*
X0025399Y0091068D02*
X0027761Y0095158D01*
X0031851Y0092796D01*
X0029489Y0088706D01*
X0025399Y0091068D01*
G37*
G36*
X0018239Y0095202D02*
X0020601Y0099292D01*
X0024691Y0096930D01*
X0022329Y0092840D01*
X0018239Y0095202D01*
G37*
G36*
X0036042Y0114731D02*
X0040132Y0117093D01*
X0042494Y0113003D01*
X0038404Y0110641D01*
X0036042Y0114731D01*
G37*
G36*
X0040176Y0107571D02*
X0044266Y0109933D01*
X0046628Y0105843D01*
X0042538Y0103481D01*
X0040176Y0107571D01*
G37*
G36*
X0082904Y0109933D02*
X0086994Y0107571D01*
X0084632Y0103481D01*
X0080542Y0105843D01*
X0082904Y0109933D01*
G37*
G36*
X0087038Y0117093D02*
X0091128Y0114731D01*
X0088766Y0110641D01*
X0084676Y0113003D01*
X0087038Y0117093D01*
G37*
G36*
X0106567Y0099292D02*
X0108929Y0095202D01*
X0104839Y0092840D01*
X0102477Y0096930D01*
X0106567Y0099292D01*
G37*
G36*
X0099407Y0095158D02*
X0101769Y0091068D01*
X0097679Y0088706D01*
X0095317Y0092796D01*
X0099407Y0095158D01*
G37*
G36*
X0101769Y0052430D02*
X0099407Y0048340D01*
X0095317Y0050702D01*
X0097679Y0054792D01*
X0101769Y0052430D01*
G37*
G36*
X0108929Y0048296D02*
X0106567Y0044206D01*
X0102477Y0046568D01*
X0104839Y0050658D01*
X0108929Y0048296D01*
G37*
G36*
X0091128Y0028765D02*
X0087038Y0026403D01*
X0084676Y0030493D01*
X0088766Y0032855D01*
X0091128Y0028765D01*
G37*
G36*
X0086994Y0035925D02*
X0082904Y0033563D01*
X0080542Y0037653D01*
X0084632Y0040015D01*
X0086994Y0035925D01*
G37*
D12*
X0062825Y0040049D03*
X0055345Y0040049D03*
X0054225Y0093649D03*
X0046745Y0093649D03*
X0057945Y0103449D03*
X0065425Y0103449D03*
X0076945Y0099049D03*
X0084425Y0099049D03*
D13*
X0086285Y0082449D03*
X0081285Y0082449D03*
X0076285Y0082449D03*
X0091285Y0082449D03*
X0091285Y0055949D03*
X0086285Y0055949D03*
X0081285Y0055949D03*
X0076285Y0055949D03*
D14*
X0043485Y0082749D03*
X0033485Y0082749D03*
D15*
X0038485Y0061749D03*
D16*
X0049185Y0073649D03*
X0049185Y0078649D03*
X0049185Y0083649D03*
X0061785Y0083649D03*
X0061785Y0078649D03*
X0061785Y0073649D03*
D17*
X0069685Y0075009D03*
X0069685Y0082489D03*
D18*
X0070085Y0064749D03*
X0070085Y0049749D03*
X0048085Y0049749D03*
X0048085Y0064749D03*
D19*
X0096885Y0068202D03*
X0096885Y0074895D03*
M02*
